<mxfile host="app.diagrams.net" modified="2023-11-03T08:52:58.643Z" agent="Mozilla/5.0 (Windows NT 10.0; Win64; x64) AppleWebKit/537.36 (KHTML, like Gecko) Chrome/118.0.0.0 Safari/537.36" etag="B0GAA8pvYrtrw-_m3jnN" version="21.7.5" type="github">
  <diagram name="第 1 页" id="kUQ7KydgY5u5Dmvj3uRu">
    <mxGraphModel dx="1434" dy="756" grid="1" gridSize="10" guides="1" tooltips="1" connect="1" arrows="1" fold="1" page="1" pageScale="1" pageWidth="827" pageHeight="1169" math="0" shadow="0">
      <root>
        <mxCell id="0" />
        <mxCell id="1" parent="0" />
        <mxCell id="1xgjT02lsW5iCGdwQdr1-1" value="" style="edgeStyle=orthogonalEdgeStyle;rounded=0;orthogonalLoop=1;jettySize=auto;html=1;" edge="1" parent="1" source="1xgjT02lsW5iCGdwQdr1-2" target="1xgjT02lsW5iCGdwQdr1-3">
          <mxGeometry relative="1" as="geometry" />
        </mxCell>
        <mxCell id="1xgjT02lsW5iCGdwQdr1-2" value="功能介绍" style="rounded=1;whiteSpace=wrap;html=1;" vertex="1" parent="1">
          <mxGeometry x="220" y="260" width="120" height="60" as="geometry" />
        </mxCell>
        <mxCell id="1xgjT02lsW5iCGdwQdr1-3" value="Actions" style="rounded=1;whiteSpace=wrap;html=1;" vertex="1" parent="1">
          <mxGeometry x="413" y="260" width="120" height="60" as="geometry" />
        </mxCell>
        <mxCell id="1xgjT02lsW5iCGdwQdr1-4" value="" style="strokeWidth=2;html=1;shape=mxgraph.flowchart.annotation_2;align=left;labelPosition=right;pointerEvents=1;" vertex="1" parent="1">
          <mxGeometry x="533" y="240" width="50" height="100" as="geometry" />
        </mxCell>
        <mxCell id="1xgjT02lsW5iCGdwQdr1-5" value="显示&amp;nbsp;你可以这样对我说：" style="text;html=1;strokeColor=none;fillColor=none;align=center;verticalAlign=middle;whiteSpace=wrap;rounded=0;" vertex="1" parent="1">
          <mxGeometry x="590" y="230" width="190" height="30" as="geometry" />
        </mxCell>
        <mxCell id="1xgjT02lsW5iCGdwQdr1-6" value="播报&amp;nbsp;你可以这样对我说：" style="text;html=1;strokeColor=none;fillColor=none;align=center;verticalAlign=middle;whiteSpace=wrap;rounded=0;" vertex="1" parent="1">
          <mxGeometry x="585" y="270" width="200" height="30" as="geometry" />
        </mxCell>
        <mxCell id="1xgjT02lsW5iCGdwQdr1-7" value="功能展示" style="text;html=1;strokeColor=none;fillColor=none;align=center;verticalAlign=middle;whiteSpace=wrap;rounded=0;" vertex="1" parent="1">
          <mxGeometry x="570" y="320" width="145" height="30" as="geometry" />
        </mxCell>
      </root>
    </mxGraphModel>
  </diagram>
</mxfile>
